<?xml version="1.0" encoding="UTF-8" standalone="no"?>
<!-- Created with Inkscape (http://www.inkscape.org/) -->

<svg
   xmlns:dc="http://purl.org/dc/elements/1.1/"
   xmlns:cc="http://creativecommons.org/ns#"
   xmlns:rdf="http://www.w3.org/1999/02/22-rdf-syntax-ns#"
   xmlns:svg="http://www.w3.org/2000/svg"
   xmlns="http://www.w3.org/2000/svg"
   xmlns:sodipodi="http://sodipodi.sourceforge.net/DTD/sodipodi-0.dtd"
   xmlns:inkscape="http://www.inkscape.org/namespaces/inkscape"
   width="113.30854"
   height="29.062361"
   viewBox="0 0 29.979551 7.6894162"
   version="1.1"
   id="svg15601"
   inkscape:version="0.92.0 r15299"
   sodipodi:docname="rostelecomEN2.svg">
  <defs
     id="defs15595" />
  <metadata
     id="metadata15598">
    <rdf:RDF>
      <cc:Work
         rdf:about="">
        <dc:format>image/svg+xml</dc:format>
        <dc:type
           rdf:resource="http://purl.org/dc/dcmitype/StillImage" />
        <dc:title></dc:title>
      </cc:Work>
    </rdf:RDF>
  </metadata>
  <g
     inkscape:label="Layer 1"
     inkscape:groupmode="layer"
     id="layer1"
     transform="translate(-96.267516,-184.16586)">
    <g
       id="g14386"
       transform="matrix(0.10584187,0,0,0.10584187,96.399669,184.29793)">
      <path
         d="m 12.11,32.040001 c -2.9800008,-4.17 -4.7300004,-9.24 -4.9600004,-14.119999 -0.02,-0.35 -0.02,-0.690001 -0.02,-1.049999 v -0.02 -0.01 c 0,-4.05 1.1900001,-7.7399997 3.1500004,-10.5299997 1.09,-1.8600001 3.519999,-3.75 6.65,-4.9899997 -1.409999,0.5299999 -2.77,1.22 -4.069999,2.0399999 C -9.7699986,17.160004 2.4900007,52.639999 11.73,63.610001 c 0.130001,0.159999 1.130001,1.260002 1.44,1.559997 5.800001,5.699997 14.109999,6.650002 18.549999,2.120003 4.33,-4.41 3.370001,-12.419998 -2.08,-18.099999 C 23.91,43.029999 17.41,39.869999 12.11,32.040001"
         style="fill:#00a8ff;fill-opacity:1;fill-rule:nonzero;stroke:none"
         id="path14388"
         inkscape:connector-curvature="0" />
      <path
         d="m 23.469999,0.02 c -0.35,0.01 -0.7,0.03 -1.049999,0.06000001 1.870001,-0.10000001 3.49,0.19 4.6,0.84000001 C 27.210001,1.03 27.41,1.15 27.59,1.28 c 0.9,0.62 1.629999,1.43 2.17,2.3900001 0.870001,1.44 1.31,3.21 1.31,5.1599998 0,0.05 0,0.09 0,0.1400004 C 31.04,12.92 29.26,17.560001 25.82,21.440001 c -0.09,0.1 -0.180001,0.2 -0.270001,0.299999 0,0 0,0 0,0.01 -0.290001,0.34 -0.569999,0.690001 -0.83,1.059999 -3.399999,4.89 -2.66,11.289999 1.65,14.289999 4.309999,3 10.57,1.46 13.979999,-3.439998 0.169999,-0.240002 0.330002,-0.490002 0.48,-0.740002 C 50.580002,17.6 39.23,-0.65000004 23.469999,0.02"
         style="fill:#00a8ff;fill-opacity:1;fill-rule:nonzero;stroke:none"
         id="path14390"
         inkscape:connector-curvature="0" />
      <path
         d="m 15.17,27.43 c 0.48,-8.130001 5.73,-14.439999 11.73,-14.08 1.11,0.07 2.219999,0.41 3.2,0.890001 0.63,-1.810001 0.960001,-3.6 0.97,-5.2699998 V 8.8299999 C 31.07,6.8800001 30.639999,5.1099997 29.76,3.6700001 29.219999,2.72 28.49,1.9100001 27.59,1.28 27.4,1.15 27.210001,1.03 27.01,0.91999996 24.99,-0.28000009 21.23,-0.26000011 17.360001,1.16 14.01,2.3899999 11.410001,4.3699999 10.270001,6.3099999 8.3100004,9.1099997 7.1200004,12.799999 7.1200004,16.84 c 0,0.350001 0.01,0.700001 0.03,1.049999 0.2199998,4.880001 1.9800005,9.950001 4.9600006,14.14 2.41,3.560001 5.059999,6.16 7.779998,8.510002 C 16.77,37.810001 14.85,32.900002 15.17,27.43"
         style="fill:#f57b20;fill-opacity:1;fill-rule:nonzero;stroke:none"
         id="path14392"
         inkscape:connector-curvature="0" />
      <path
         d="m 221.64,49.07 c 0.24,0 0.44,-0.200001 0.44,-0.430001 l -0.02,-3.18 c 0,-0.240002 -0.19,-0.439999 -0.44,-0.439999 -0.13001,0 -3.48,0 -4.19001,0 -3.83999,0 -6.42,-2.529998 -6.42,-6.319999 0,-4.200001 2.82001,-6.490002 6.5,-6.490002 l 3.78,-0.01 c 0.22,0 0.41001,-0.180001 0.42,-0.41 l 0.01,-3.190001 c 0,-0.25 -0.2,-0.44 -0.43,-0.44 h -4.71 c -7.44001,0 -11.31,4.68 -11.31,10.259998 0,5.529999 3.72999,10.66 11.21001,10.66 h 5.16 v -0.01 z"
         style="fill:#ffffff;fill-opacity:1;fill-rule:nonzero;stroke:none"
         id="path14394"
         inkscape:connector-curvature="0" />
      <path
         d="m 124.73,36.599998 c -1.69,-0.569999 -3.66999,-0.880001 -3.66999,-2.7 0,-0.529999 0.18,-1.709999 3.25,-1.709999 H 129.14 c 0.24,0 0.44,-0.200001 0.44,-0.440001 V 28.6 c 0,-0.239999 -0.19,-0.44 -0.44,-0.44 h -5.92 c -6.17,0 -7.63,3.469999 -7.63,5.849998 0,3.55 2.31,4.89 5.62001,6.099999 1.98,0.720001 3.64,1.209999 3.64,2.939998 0,0.849999 -0.65,1.970002 -3.47001,1.970002 h -5.45999 c -0.24,0 -0.43,0.189998 -0.44001,0.419998 v 3.189998 c 0,0.23 0.2,0.419999 0.44001,0.419999 h 6.26 c 5.61,0 8.14999,-2.82 8.14999,-6.130001 0,-4.099991 -3.22,-5.549992 -5.6,-6.319993"
         style="fill:#ffffff;fill-opacity:1;fill-rule:nonzero;stroke:none"
         id="path14396"
         inkscape:connector-curvature="0" />
      <path
         d="m 101.23,45.43 c -2.419995,0 -5.05,-1.979999 -5.05,-6.819999 0,-4.849999 2.629998,-6.82 5.05,-6.82 2.42,0 5.05001,1.970001 5.05001,6.82 C 106.28,43.459999 103.65,45.43 101.23,45.43 m 0,-17.59 c -6.219998,0 -10.779995,3.799999 -10.779995,10.779999 0,6.979999 4.559997,10.779999 10.779995,10.779999 6.21,0 10.78,-3.790001 10.78,-10.779999 0,-6.99 -4.57,-10.779999 -10.78,-10.779999"
         style="fill:#ffffff;fill-opacity:1;fill-rule:nonzero;stroke:none"
         id="path14398"
         inkscape:connector-curvature="0" />
      <path
         d="m 234.95,45.43 c -2.42,0 -5.05001,-1.979999 -5.05001,-6.819999 0,-4.849999 2.63001,-6.82 5.05001,-6.82 2.42,0 5.03999,1.970001 5.03999,6.82 C 239.99001,43.459999 237.37,45.43 234.95,45.43 m 0,-17.59 c -6.22,0 -10.78,3.799999 -10.78,10.779999 0,6.979999 4.56,10.779999 10.78,10.779999 6.22,0 10.77,-3.790001 10.77,-10.779999 0,-6.99 -4.55,-10.779999 -10.77,-10.779999"
         style="fill:#ffffff;fill-opacity:1;fill-rule:nonzero;stroke:none"
         id="path14400"
         inkscape:connector-curvature="0" />
      <path
         d="m 192.28999,31.620001 c 2.01,0 4.4,1.370001 4.33001,4.890001 h -8.61001 c 0.04,-2.760002 1.86001,-4.890001 4.28,-4.890001 M 199.92,44.5 c 0,0 -2.82001,0.27 -4.94,0.27 -3.74001,0 -6.81,-1.84 -6.97001,-4.509998 h 11.65 c 1.3,0 2.38,-1.07 2.38,-2.369999 -0.14,-3.09 -1.21,-10.060001 -9.41999,-10.060001 -5.61001,0 -10.34,4.040001 -10.34,10.779999 C 182.28,46 188.49001,49.07 194.77,49.07 c 2.44001,0 5.14,-0.270001 5.14,-0.270001 0.24001,0 0.43,-0.189998 0.45,-0.419998 V 44.91 c -0.03,-0.240002 -0.21001,-0.41 -0.44,-0.41"
         style="fill:#ffffff;fill-opacity:1;fill-rule:nonzero;stroke:none"
         id="path14402"
         inkscape:connector-curvature="0" />
      <path
         d="m 159.3,31.620001 c 2.02001,0 4.4,1.370001 4.32001,4.890001 H 155.02 c 0.05,-2.760002 1.86,-4.890001 4.28,-4.890001 M 166.92999,44.5 c 0,0 -2.83,0.27 -4.94,0.27 -3.73,0 -6.81,-1.84 -6.97,-4.509998 h 11.64999 c 1.31,0 2.37,-1.07 2.37,-2.369999 -0.14,-3.09 -1.22,-10.060001 -9.43,-10.060001 -5.61,0 -10.33,4.040001 -10.33,10.779999 0,7.389999 6.21001,10.459999 12.49001,10.459999 2.45,0 5.16,-0.270001 5.16,-0.270001 0.23,0 0.42,-0.189998 0.44,-0.419998 V 44.91 c -0.02,-0.240002 -0.20999,-0.41 -0.44,-0.41"
         style="fill:#ffffff;fill-opacity:1;fill-rule:nonzero;stroke:none"
         id="path14404"
         inkscape:connector-curvature="0" />
      <path
         d="m 178.03,20.82 h -2.69 c -1.29,0 -2.37,1.069999 -2.37,2.369999 v 25.45 c 0,0.23 0.2,0.430001 0.44,0.430001 h 4.61 c 0.24001,0 0.44001,-0.200001 0.44001,-0.430001 V 21.25 c 0,-0.24 -0.20002,-0.43 -0.43001,-0.43"
         style="fill:#ffffff;fill-opacity:1;fill-rule:nonzero;stroke:none"
         id="path14406"
         inkscape:connector-curvature="0" />
      <path
         d="m 76.099998,33 h -3.069999 v -7.74 h 3.069999 c 4.519997,0 4.809998,2.91 4.809998,3.83 8e-6,1.65 -1.179993,3.91 -4.809998,3.91 M 88.68,48.560001 l -4.379997,-10.43 c -0.690002,-1.610001 -1.580002,-2.66 -2.949997,-2.990002 v -0.08 c 1.980003,-0.48 5.449997,-1.939999 5.449997,-6.58 0,-3.789999 -1.940002,-7.66 -9.489998,-7.66 h -7.639999 c -1.300003,0 -2.370003,1.069999 -2.370003,2.370001 v 25.45 c 0,0.240002 0.199997,0.430001 0.440002,0.430001 h 4.849999 c 0.239998,0 0.440002,-0.200001 0.440002,-0.430001 v -11.2 h 2.180001 c 1.900001,0 2.949997,0.979999 3.639999,2.670002 l 3.449997,8.52 c 0.120003,0.290001 0.300003,0.43 0.599999,0.43 h 5.480003 c 0.249992,0 0.419998,-0.229999 0.299995,-0.5"
         style="fill:#ffffff;fill-opacity:1;fill-rule:nonzero;stroke:none"
         id="path14408"
         inkscape:connector-curvature="0" />
      <path
         d="M 146.46001,45.02 H 145.49 c -3.55,0 -3.44,-2 -3.44,-4.060001 v -8.77 h 4.41001 c 0.24,0 0.44,-0.190001 0.44,-0.430001 V 28.6 c 0,-0.239999 -0.2,-0.44 -0.44,-0.44 H 142.05 v -4.350001 c 0,-0.239999 -0.19999,-0.44 -0.42999,-0.44 h -2.67999 c -1.30001,0 -2.37,1.07 -2.37,2.369999 v 2.41 h -3.67999 c -0.23,0 -0.42999,0.18 -0.44,0.41 v 3.219999 c 0.01,0.219999 0.21,0.399999 0.44,0.399999 h 3.67999 v 10.759999 c 0,3.369999 2.02001,6.11 7.7,6.11 h 2.2 c 0.24,0 0.44,-0.2 0.44,-0.43 V 45.449997 C 146.89999,45.23 146.69,45.02 146.46001,45.02"
         style="fill:#ffffff;fill-opacity:1;fill-rule:nonzero;stroke:none"
         id="path14410"
         inkscape:connector-curvature="0" />
      <path
         d="m 274.06,27.84 c -2.66001,0 -5.37,1.129999 -6.85999,3.92 h -0.11999 c -0.53,-1.819999 -1.98001,-3.92 -5.73001,-3.92 -2.67002,0 -5.21,1.219999 -6.42,3.880001 H 254.8 v -1.18 c 0,-1.299999 -1.08,-2.369999 -2.38,-2.369999 h -2.39 c -0.24001,0 -0.44,0.200001 -0.44,0.440001 v 20.039999 c 0,0.229999 0.19999,0.43 0.44,0.43 h 4.61999 c 0.24001,0 0.43,-0.200001 0.43,-0.43 V 37.52 c 0,-3.759998 2.33999,-5.2 4.32,-5.2 2.73999,0 3.01999,2.5 3.01999,5 v 11.310001 c 0,0.23 0.20999,0.43 0.45002,0.43 h 4.6 c 0.22,0 0.4,-0.159999 0.42999,-0.36 V 37.52 c 0,-3.509998 2.14002,-5.2 4.25,-5.2 3.15,0 3.10001,3.060001 3.10001,5 v 11.310001 c 0,0.23 0.20001,0.43 0.45001,0.43 H 280.31 c 0.23999,0 0.44,-0.2 0.44,-0.43 V 35.150002 C 280.76001,28.280001 275.92001,27.84 274.06,27.84"
         style="fill:#ffffff;fill-opacity:1;fill-rule:nonzero;stroke:none"
         id="path14412"
         inkscape:connector-curvature="0" />
    </g>
  </g>
</svg>
